<?xml version="1.0" encoding="UTF-8" standalone="no"?>
<svg width="24px" height="24px" viewBox="0 0 24 24" version="1.1" xmlns="http://www.w3.org/2000/svg" xmlns:xlink="http://www.w3.org/1999/xlink">
    <!-- Generator: Sketch 3.8.3 (29802) - http://www.bohemiancoding.com/sketch -->
    <title>Shape</title>
    <desc>Created with Sketch.</desc>
    <defs></defs>
    <g id="Wayblazer" stroke="none" stroke-width="1" fill="none" fill-rule="evenodd">
        <path d="M22.0924048,1.28471294 L20.0797945,3.28197444 C18.9754509,2.23953125 17.7137466,1.43198346 16.2945733,0.859168387 C14.8754,0.286407537 13.4071532,0 11.8899414,0 C10.2798965,0 8.74207924,0.314928999 7.27648947,0.944407435 C5.81079125,1.57394009 4.54642996,2.42009489 3.48340562,3.48314293 C2.42032705,4.54629942 1.57393106,5.81046173 0.944380328,7.27600942 C0.314883817,8.74166556 0,10.2792218 0,11.8894373 C0,13.4991648 0.314883817,15.0371006 0.944434553,16.5027025 C1.57414796,17.9684129 2.42032705,19.2326836 3.48345984,20.2957317 C4.54648419,21.3584544 5.81084547,22.2047718 7.27654369,22.8343587 C8.74213347,23.4639456 10.2799508,23.7788746 11.8899956,23.7788746 C13.6651009,23.7788746 15.3530669,23.404788 16.9525921,22.656452 C18.5522257,21.9084414 19.9146256,20.8529846 21.0399001,19.4905697 C21.1223219,19.3873827 21.1610384,19.2712364 21.1557244,19.1422391 C21.1508984,19.0132961 21.1015538,18.9075064 21.0087208,18.8249243 L18.8880946,16.68858 C18.7741681,16.5958039 18.6455467,16.549443 18.5009832,16.549443 C18.3358685,16.5700479 18.2172787,16.6321878 18.1449427,16.7353747 C17.3914882,17.7160576 16.4677675,18.4744248 15.3736723,19.0115067 C14.279794,19.5479922 13.1186769,19.8161265 11.8904294,19.8161265 C10.8172108,19.8161265 9.79279454,19.6071498 8.81745181,19.1890881 C7.84200063,18.7712432 6.99815321,18.2061821 6.28612645,17.4940131 C5.57415392,16.7817899 5.00907655,15.938292 4.59100281,14.9627604 C4.17303751,13.9874457 3.96400064,12.96333 3.96400064,11.8898711 C3.96400064,10.8165206 4.17320019,9.7919169 4.59100281,8.81681907 C5.00891388,7.84161279 5.57393702,6.9977896 6.28612645,6.28578328 C6.99837011,5.5736143 7.84200063,5.00855316 8.81745181,4.59049142 C9.79257764,4.17259235 10.8172108,3.96350725 11.8904294,3.96350725 C13.9650187,3.96350725 15.7661519,4.67052503 17.2937207,6.08450635 L15.1567729,8.22057952 C14.8366835,8.53024886 14.7646728,8.88638758 14.9398192,9.288833 C15.115562,9.7016893 15.4200346,9.90806323 15.8537251,9.90806323 L22.7894113,9.90806323 C23.0577702,9.90806323 23.2899068,9.81008171 23.4860924,9.61395598 C23.6820069,9.41788449 23.7799912,9.18570026 23.7799912,8.91734909 L23.7799912,1.9816994 C23.7798827,1.54834669 23.5791423,1.24388279 23.176143,1.06787392 C22.7530264,0.892732618 22.3918888,0.964741177 22.0924048,1.28471294 Z" id="Shape" fill="#000000"></path>
    </g>
</svg>